<?xml version="1.0" standalone="no"?>
<!DOCTYPE svg PUBLIC "-//W3C//DTD SVG 20010904//EN"
 "http://www.w3.org/TR/2001/REC-SVG-20010904/DTD/svg10.dtd">
<svg version="1.0" xmlns="http://www.w3.org/2000/svg"
 width="382.000000pt" height="200.000000pt" viewBox="0 0 382.000000 200.000000"
 preserveAspectRatio="xMidYMid meet">
<metadata>
Created by potrace 1.14, written by Peter Selinger 2001-2017
</metadata>
<g transform="translate(0.000000,200.000000) scale(0.100000,-0.100000)"
fill="#000000" stroke="none">
<path d="M340 1409 c-127 -21 -273 -125 -304 -215 -23 -67 -3 -104 55 -104 15
0 19 7 19 38 0 76 61 166 141 207 26 14 28 14 22 -2 -4 -10 -64 -152 -134
-315 l-127 -298 68 0 68 0 73 175 74 175 68 0 c37 0 67 -1 67 -3 0 -1 -31 -77
-70 -167 -38 -90 -70 -168 -70 -172 0 -14 127 -9 133 5 3 6 65 151 137 322 73
171 136 320 141 333 8 21 7 22 -59 22 l-67 0 -56 -133 -56 -132 -66 -3 c-37
-2 -67 0 -67 3 0 3 25 64 55 135 30 71 55 131 55 134 0 8 -32 6 -100 -5z"/>
<path d="M2875 1413 c-91 -13 -172 -47 -247 -106 -50 -38 -75 -74 -90 -130
-11 -41 -10 -48 7 -67 10 -11 28 -20 40 -20 18 0 23 9 33 60 14 68 56 130 117
172 50 35 95 48 163 48 44 0 57 -5 79 -26 21 -21 24 -32 19 -62 -8 -55 -54
-113 -109 -141 -26 -13 -50 -21 -53 -18 -3 3 13 49 35 103 23 53 40 99 38 100
-6 6 -130 -15 -137 -23 -6 -6 -95 -213 -237 -550 l-13 -33 67 0 68 0 75 178
c64 151 79 177 99 180 40 6 68 -7 81 -38 25 -59 -32 -205 -92 -236 -26 -13
-32 -13 -60 1 -17 8 -32 15 -34 15 -1 0 -7 -14 -13 -31 -41 -118 160 -108 253
14 36 47 75 136 82 189 7 53 -14 103 -51 120 l-25 11 35 24 c46 31 85 99 85
149 0 45 -19 78 -58 98 -31 16 -112 26 -157 19z"/>
<path d="M773 1165 c-110 -55 -217 -221 -218 -337 0 -78 22 -100 104 -106 47
-3 69 0 105 17 61 30 122 99 162 186 29 63 37 73 65 79 18 3 34 4 36 2 3 -3
-100 -257 -114 -278 -2 -5 27 -8 64 -8 l68 0 70 163 c72 170 107 221 147 215
13 -2 24 -11 26 -20 2 -10 -17 -65 -42 -123 -25 -58 -48 -122 -52 -141 -19
-103 95 -134 197 -54 l36 29 13 -24 c40 -74 194 -61 302 25 44 36 46 36 41 7
-3 -16 4 -34 19 -52 31 -35 90 -38 142 -7 20 12 36 18 36 14 -1 -18 -21 -34
-87 -67 -75 -37 -101 -66 -110 -119 -11 -68 84 -99 172 -56 45 22 90 77 123
152 16 37 29 50 65 66 50 22 118 85 142 131 14 29 14 31 -2 31 -10 0 -34 -21
-53 -47 -32 -43 -95 -91 -105 -81 -3 2 33 93 80 202 47 108 85 202 85 207 0 5
-29 9 -64 9 l-64 0 -64 -151 c-63 -151 -105 -216 -143 -221 -38 -6 -28 43 44
210 l69 162 -67 0 -68 0 -63 -148 c-59 -139 -65 -150 -112 -185 -59 -43 -122
-63 -158 -50 -28 10 -35 30 -25 79 4 25 11 34 25 34 41 0 130 43 170 81 46 45
70 92 70 138 0 83 -151 80 -254 -5 -48 -40 -113 -139 -136 -208 -24 -72 -38
-92 -71 -104 -59 -22 -64 15 -15 121 48 106 69 174 62 203 -13 50 -104 66
-163 28 -29 -18 -37 -18 -29 1 4 12 -6 15 -62 15 l-67 0 -24 -60 c-21 -53 -28
-61 -60 -70 -52 -14 -54 -13 -48 19 8 37 -7 89 -30 107 -30 23 -113 17 -170
-11z m127 -56 c0 -11 -10 -33 -21 -49 -16 -21 -20 -36 -15 -56 9 -33 -31 -119
-78 -169 -38 -40 -81 -47 -91 -15 -15 47 67 232 127 286 41 37 78 38 78 3z"/>
<path d="M3252 1164 c-90 -45 -175 -164 -207 -292 -14 -54 -14 -65 -1 -96 19
-45 49 -60 117 -59 64 1 131 27 188 73 l38 30 9 -32 c22 -76 127 -95 238 -43
60 28 180 135 159 142 -7 3 -36 -14 -65 -35 -82 -62 -179 -79 -192 -34 -3 9
-2 32 2 51 7 31 13 36 55 47 63 16 129 56 165 100 52 63 61 151 17 168 -32 12
-110 5 -151 -13 -85 -39 -174 -146 -209 -252 -20 -60 -70 -101 -144 -119 -65
-15 -91 -3 -91 45 0 45 9 65 29 65 98 0 240 128 241 218 0 65 -102 84 -198 36z"/>
</g>
</svg>
